<svg width="1410" height="183" viewBox="0 0 1410 183" fill="none" xmlns="http://www.w3.org/2000/svg">
    <path d="M0.360001 0.929988V183H21.27V38.16H22.035L85.02 183H103.89L166.875 38.16H167.64V183H188.55V0.929988H162.54L94.965 156.225H94.2L26.37 0.929988H0.360001ZM278.523 0.929988L206.868 183H229.308L248.688 132H332.328L351.708 183H374.403L302.748 0.929988H278.523ZM255.318 114.405L290.253 23.37H291.273L325.698 114.405H255.318ZM490.486 11.385H424.441V4.75498H497.116V11.385H510.376V18.015H517.006V24.645H523.636V31.275H530.266V24.645H536.896V4.75498H543.526V80.745H536.896V64.17H530.266V57.54H523.636V44.28H517.006V37.65H510.376V31.02H503.746V24.39H497.116V17.76H490.486V11.385ZM437.701 176.37H510.376V183H431.071V176.37H424.441V169.74H411.181V163.11H404.551V156.48H397.921V163.11H391.291V183H384.661V116.955H391.291V123.585H397.921V130.215H404.551V143.475H411.181V150.105H417.811V156.735H424.441V163.365H431.071V169.995H437.701V176.37ZM550.156 116.7V149.85H543.526V156.48H536.896V163.11H530.266V169.74H517.006V176.37H503.746V169.74H510.376V163.11H517.006V156.48H523.636V129.96H517.006V123.33H503.746V116.7H490.486V110.07H463.711V103.44H437.191V96.81H417.301V91.455H404.041V84.825H397.411V78.195H390.781V71.565H384.151V37.395H390.781V30.765H397.411V24.135H404.041V17.505H417.301V10.875H430.561V17.505H423.931V24.135H417.301V30.765H410.671V57.285H417.301V63.915H430.561V70.545H443.821V77.175H470.596V83.805H497.116V90.435H517.006V97.065H530.266V103.695H536.896V110.325H543.526V116.955L550.156 116.7ZM697.173 0.929988L599.253 95.535V0.929988H578.343V183H599.253V119.25L627.558 92.475L707.883 183H735.933L642.093 78.96L724.458 0.929988H697.173ZM852.068 11.385H786.023V4.75498H858.698V11.385H871.958V18.015H878.588V24.645H885.218V31.275H891.848V24.645H898.478V4.75498H905.108V80.745H898.478V64.17H891.848V57.54H885.218V44.28H878.588V37.65H871.958V31.02H865.328V24.39H858.698V17.76H852.068V11.385ZM799.283 176.37H871.958V183H792.653V176.37H786.023V169.74H772.763V163.11H766.133V156.48H759.503V163.11H752.873V183H746.243V116.955H752.873V123.585H759.503V130.215H766.133V143.475H772.763V150.105H779.393V156.735H786.023V163.365H792.653V169.995H799.283V176.37ZM911.738 116.7V149.85H905.108V156.48H898.478V163.11H891.848V169.74H878.588V176.37H865.328V169.74H871.958V163.11H878.588V156.48H885.218V129.96H878.588V123.33H865.328V116.7H852.068V110.07H825.293V103.44H798.773V96.81H778.883V91.455H765.623V84.825H758.993V78.195H752.363V71.565H745.733V37.395H752.363V30.765H758.993V24.135H765.623V17.505H778.883V10.875H792.143V17.505H785.513V24.135H778.883V30.765H772.253V57.285H778.883V63.915H792.143V70.545H805.403V77.175H832.178V83.805H858.698V90.435H878.588V97.065H891.848V103.695H898.478V110.325H905.108V116.955L911.738 116.7Z" fill="black"/>
    <path d="M944.36 0.929988V183H965.27V33.315H966.035L1069.57 183H1090.99V0.929988H1070.07V149.085H1069.31L966.29 0.929988H944.36ZM1127.64 0.929988V183H1148.55V98.34H1244.18V80.235H1148.55V19.035H1249.53V0.929988H1127.64ZM1260.79 0.929988V19.035H1325.05V183H1345.7V19.035H1409.96V0.929988H1260.79Z" fill="black"/>
</svg>
