<svg width="53" height="11" viewBox="0 0 53 11" fill="none" xmlns="http://www.w3.org/2000/svg">
    <path d="M0.05 0.289999V11H1.805V3.62H1.865L5.015 11H6.53L9.68 3.62H9.74V11H11.495V0.289999H9.44L5.81 8.69H5.75L2.105 0.289999H0.05ZM19.3748 0.904999H15.4898V0.514999H19.7648V0.904999H20.5448V1.295H20.9348V1.685H21.3248V2.075H21.7148V1.685H22.1048V0.514999H22.4948V4.985H22.1048V4.01H21.7148V3.62H21.3248V2.84H20.9348V2.45H20.5448V2.06H20.1548V1.67H19.7648V1.28H19.3748V0.904999ZM16.2698 10.61H20.5448V11H15.8798V10.61H15.4898V10.22H14.7098V9.83H14.3198V9.44H13.9298V9.83H13.5398V11H13.1498V7.115H13.5398V7.505H13.9298V7.895H14.3198V8.675H14.7098V9.065H15.0998V9.455H15.4898V9.845H15.8798V10.235H16.2698V10.61ZM22.8848 7.1V9.05H22.4948V9.44H22.1048V9.83H21.7148V10.22H20.9348V10.61H20.1548V10.22H20.5448V9.83H20.9348V9.44H21.3248V7.88H20.9348V7.49H20.1548V7.1H19.3748V6.71H17.7998V6.32H16.2398V5.93H15.0698V5.615H14.2898V5.225H13.8998V4.835H13.5098V4.445H13.1198V2.435H13.5098V2.045H13.8998V1.655H14.2898V1.265H15.0698V0.875H15.8498V1.265H15.4598V1.655H15.0698V2.045H14.6798V3.605H15.0698V3.995H15.8498V4.385H16.6298V4.775H18.2048V5.165H19.7648V5.555H20.9348V5.945H21.7148V6.335H22.1048V6.725H22.4948V7.115L22.8848 7.1ZM30.2879 0.904999H26.4029V0.514999H30.6779V0.904999H31.4579V1.295H31.8479V1.685H32.2379V2.075H32.6279V1.685H33.0179V0.514999H33.4079V4.985H33.0179V4.01H32.6279V3.62H32.2379V2.84H31.8479V2.45H31.4579V2.06H31.0679V1.67H30.6779V1.28H30.2879V0.904999ZM27.1829 10.61H31.4579V11H26.7929V10.61H26.4029V10.22H25.6229V9.83H25.2329V9.44H24.8429V9.83H24.4529V11H24.0629V7.115H24.4529V7.505H24.8429V7.895H25.2329V8.675H25.6229V9.065H26.0129V9.455H26.4029V9.845H26.7929V10.235H27.1829V10.61ZM33.7979 7.1V9.05H33.4079V9.44H33.0179V9.83H32.6279V10.22H31.8479V10.61H31.0679V10.22H31.4579V9.83H31.8479V9.44H32.2379V7.88H31.8479V7.49H31.0679V7.1H30.2879V6.71H28.7129V6.32H27.1529V5.93H25.9829V5.615H25.2029V5.225H24.8129V4.835H24.4229V4.445H24.0329V2.435H24.4229V2.045H24.8129V1.655H25.2029V1.265H25.9829V0.875H26.7629V1.265H26.3729V1.655H25.9829V2.045H25.5929V3.605H25.9829V3.995H26.7629V4.385H27.5429V4.775H29.1179V5.165H30.6779V5.555H31.8479V5.945H32.6279V6.335H33.0179V6.725H33.4079V7.115L33.7979 7.1ZM35.426 0.289999V11H37.181V6.26H42.416V4.76H37.181V1.79H42.731V0.289999H35.426ZM43.3314 0.289999V1.79H46.8414V11H48.5964V1.79H52.1064V0.289999H43.3314Z" fill="#171717"/>
</svg>
